STARTFONT 2.1
FONT -FontForge-EDITION 12-Book-R-Normal--12-120-72-72-P-80-ISO10646-1
SIZE 12 72 72
FONTBOUNDINGBOX 10 12 0 -2
COMMENT "Generated by fontforge, http://fontforge.sourceforge.net"
COMMENT "Copyright(c)2001 Keisuke Asami. All rights reserved.  EDITION 12 Ver.1.0"
STARTPROPERTIES 39
FOUNDRY "FontForge"
FAMILY_NAME "EDITION 12"
WEIGHT_NAME "Book"
SLANT "R"
SETWIDTH_NAME "Normal"
ADD_STYLE_NAME ""
PIXEL_SIZE 12
POINT_SIZE 120
RESOLUTION_X 72
RESOLUTION_Y 72
SPACING "P"
AVERAGE_WIDTH 80
CHARSET_REGISTRY "ISO10646"
CHARSET_ENCODING "1"
FONTNAME_REGISTRY ""
CHARSET_COLLECTIONS "ISO10646-1"
FONT_NAME "EDITION12A"
FACE_NAME "EDITION 12 A"
COPYRIGHT "Copyright(c)2001 Keisuke Asami. All rights reserved.  EDITION 12 Ver.1.0"
FONT_VERSION "Macromedia Fontographer 4.1J 01.12.18"
FONT_ASCENT 10
FONT_DESCENT 2
UNDERLINE_POSITION -2
UNDERLINE_THICKNESS 1
X_HEIGHT 7
CAP_HEIGHT 9
RAW_ASCENT 833
RAW_DESCENT 166
NORM_SPACE 4
RELATIVE_WEIGHT 40
RELATIVE_SETWIDTH 50
SUPERSCRIPT_X 0
SUPERSCRIPT_Y 5
SUPERSCRIPT_SIZE 7
SUBSCRIPT_X 0
SUBSCRIPT_Y 1
SUBSCRIPT_SIZE 7
AVG_LOWERCASE_WIDTH 83
AVG_UPPERCASE_WIDTH 90
ENDPROPERTIES
CHARS 95
STARTCHAR space
ENCODING 32
SWIDTH 333 0
DWIDTH 4 0
BBX 1 1 0 0
BITMAP
00
ENDCHAR
STARTCHAR exclam
ENCODING 33
SWIDTH 333 0
DWIDTH 4 0
BBX 2 10 0 0
BITMAP
C0
C0
C0
C0
C0
C0
C0
00
C0
C0
ENDCHAR
STARTCHAR quotedbl
ENCODING 34
SWIDTH 416 0
DWIDTH 5 0
BBX 3 3 0 7
BITMAP
A0
A0
A0
ENDCHAR
STARTCHAR numbersign
ENCODING 35
SWIDTH 750 0
DWIDTH 9 0
BBX 7 10 0 0
BITMAP
6C
6C
FE
FE
00
6C
FE
FE
6C
6C
ENDCHAR
STARTCHAR dollar
ENCODING 36
SWIDTH 750 0
DWIDTH 9 0
BBX 7 10 0 0
BITMAP
10
56
D6
D0
D4
56
16
D6
D4
10
ENDCHAR
STARTCHAR percent
ENCODING 37
SWIDTH 750 0
DWIDTH 9 0
BBX 7 10 0 0
BITMAP
E6
E6
EE
EE
18
30
EE
EE
CE
CE
ENDCHAR
STARTCHAR ampersand
ENCODING 38
SWIDTH 833 0
DWIDTH 10 0
BBX 8 10 0 0
BITMAP
6C
EC
C0
C0
77
F7
C6
C6
EE
6C
ENDCHAR
STARTCHAR quotesingle
ENCODING 39
SWIDTH 333 0
DWIDTH 4 0
BBX 2 3 0 7
BITMAP
C0
C0
C0
ENDCHAR
STARTCHAR parenleft
ENCODING 40
SWIDTH 416 0
DWIDTH 5 0
BBX 3 10 0 0
BITMAP
60
E0
C0
C0
C0
C0
C0
C0
E0
60
ENDCHAR
STARTCHAR parenright
ENCODING 41
SWIDTH 416 0
DWIDTH 5 0
BBX 3 10 0 0
BITMAP
C0
E0
60
60
60
60
60
60
E0
C0
ENDCHAR
STARTCHAR asterisk
ENCODING 42
SWIDTH 750 0
DWIDTH 9 0
BBX 7 9 0 1
BITMAP
10
D6
D6
54
10
54
D6
D6
10
ENDCHAR
STARTCHAR plus
ENCODING 43
SWIDTH 666 0
DWIDTH 8 0
BBX 6 6 0 1
BITMAP
30
30
FC
FC
30
30
ENDCHAR
STARTCHAR comma
ENCODING 44
SWIDTH 333 0
DWIDTH 4 0
BBX 2 4 0 -2
BITMAP
C0
C0
C0
80
ENDCHAR
STARTCHAR hyphen
ENCODING 45
SWIDTH 583 0
DWIDTH 7 0
BBX 5 2 0 3
BITMAP
F8
F8
ENDCHAR
STARTCHAR period
ENCODING 46
SWIDTH 333 0
DWIDTH 4 0
BBX 2 2 0 0
BITMAP
C0
C0
ENDCHAR
STARTCHAR slash
ENCODING 47
SWIDTH 750 0
DWIDTH 9 0
BBX 7 10 0 0
BITMAP
06
06
0E
1C
18
30
70
E0
C0
C0
ENDCHAR
STARTCHAR zero
ENCODING 48
SWIDTH 750 0
DWIDTH 9 0
BBX 7 10 0 0
BITMAP
6C
EE
C6
CE
DE
F6
E6
C6
EE
6C
ENDCHAR
STARTCHAR one
ENCODING 49
SWIDTH 416 0
DWIDTH 5 0
BBX 3 10 0 0
BITMAP
E0
E0
60
60
60
60
60
60
60
60
ENDCHAR
STARTCHAR two
ENCODING 50
SWIDTH 750 0
DWIDTH 9 0
BBX 7 10 0 0
BITMAP
6C
EE
C6
CE
1C
38
70
E0
DE
DE
ENDCHAR
STARTCHAR three
ENCODING 51
SWIDTH 750 0
DWIDTH 9 0
BBX 7 10 0 0
BITMAP
6C
EE
C6
06
3C
3E
06
C6
EE
6C
ENDCHAR
STARTCHAR four
ENCODING 52
SWIDTH 750 0
DWIDTH 9 0
BBX 7 10 0 0
BITMAP
36
36
76
66
E6
C6
F6
F6
06
06
ENDCHAR
STARTCHAR five
ENCODING 53
SWIDTH 750 0
DWIDTH 9 0
BBX 7 10 0 0
BITMAP
EE
EE
C0
C0
FC
7E
06
C6
EE
6C
ENDCHAR
STARTCHAR six
ENCODING 54
SWIDTH 750 0
DWIDTH 9 0
BBX 7 10 0 0
BITMAP
6C
EE
C6
C0
DC
DE
C6
C6
EE
6C
ENDCHAR
STARTCHAR seven
ENCODING 55
SWIDTH 750 0
DWIDTH 9 0
BBX 7 10 0 0
BITMAP
F6
F6
06
0E
1C
38
30
30
30
30
ENDCHAR
STARTCHAR eight
ENCODING 56
SWIDTH 750 0
DWIDTH 9 0
BBX 7 10 0 0
BITMAP
6C
EE
C6
C6
7C
FE
C6
C6
EE
6C
ENDCHAR
STARTCHAR nine
ENCODING 57
SWIDTH 750 0
DWIDTH 9 0
BBX 7 10 0 0
BITMAP
6C
EE
C6
C6
F6
76
06
C6
EE
6C
ENDCHAR
STARTCHAR colon
ENCODING 58
SWIDTH 333 0
DWIDTH 4 0
BBX 2 6 0 0
BITMAP
C0
C0
00
00
C0
C0
ENDCHAR
STARTCHAR semicolon
ENCODING 59
SWIDTH 333 0
DWIDTH 4 0
BBX 2 8 0 -2
BITMAP
C0
C0
00
00
C0
C0
C0
80
ENDCHAR
STARTCHAR less
ENCODING 60
SWIDTH 583 0
DWIDTH 7 0
BBX 5 7 0 1
BITMAP
38
38
70
E0
70
38
38
ENDCHAR
STARTCHAR equal
ENCODING 61
SWIDTH 583 0
DWIDTH 7 0
BBX 5 5 0 1
BITMAP
F8
F8
00
F8
F8
ENDCHAR
STARTCHAR greater
ENCODING 62
SWIDTH 583 0
DWIDTH 7 0
BBX 5 7 0 1
BITMAP
E0
E0
70
38
70
E0
E0
ENDCHAR
STARTCHAR question
ENCODING 63
SWIDTH 750 0
DWIDTH 9 0
BBX 7 10 0 0
BITMAP
6C
EE
C6
0E
1C
38
30
00
30
30
ENDCHAR
STARTCHAR at
ENCODING 64
SWIDTH 750 0
DWIDTH 9 0
BBX 7 10 0 0
BITMAP
6C
6C
BA
BA
AA
AA
BE
BE
6C
6C
ENDCHAR
STARTCHAR A
ENCODING 65
SWIDTH 750 0
DWIDTH 9 0
BBX 7 10 0 0
BITMAP
6C
EE
C6
C6
C6
F6
F6
C6
C6
C6
ENDCHAR
STARTCHAR B
ENCODING 66
SWIDTH 750 0
DWIDTH 9 0
BBX 7 10 0 0
BITMAP
EC
EE
C6
C6
DC
DE
C6
C6
EE
EC
ENDCHAR
STARTCHAR C
ENCODING 67
SWIDTH 750 0
DWIDTH 9 0
BBX 7 10 0 0
BITMAP
6C
EE
C6
C6
C0
C0
C6
C6
EE
6C
ENDCHAR
STARTCHAR D
ENCODING 68
SWIDTH 750 0
DWIDTH 9 0
BBX 7 10 0 0
BITMAP
EC
EE
C6
C6
C6
C6
C6
C6
EE
EC
ENDCHAR
STARTCHAR E
ENCODING 69
SWIDTH 750 0
DWIDTH 9 0
BBX 7 10 0 0
BITMAP
EE
EE
C0
C0
DC
DC
C0
C0
EE
EE
ENDCHAR
STARTCHAR F
ENCODING 70
SWIDTH 750 0
DWIDTH 9 0
BBX 7 10 0 0
BITMAP
EE
EE
C0
C0
DC
DC
C0
C0
C0
C0
ENDCHAR
STARTCHAR G
ENCODING 71
SWIDTH 750 0
DWIDTH 9 0
BBX 7 10 0 0
BITMAP
6C
EE
C6
C0
DE
DE
C6
C6
F6
76
ENDCHAR
STARTCHAR H
ENCODING 72
SWIDTH 750 0
DWIDTH 9 0
BBX 7 10 0 0
BITMAP
C6
C6
C6
C6
DE
DE
C6
C6
C6
C6
ENDCHAR
STARTCHAR I
ENCODING 73
SWIDTH 333 0
DWIDTH 4 0
BBX 2 10 0 0
BITMAP
C0
C0
C0
C0
C0
C0
C0
C0
C0
C0
ENDCHAR
STARTCHAR J
ENCODING 74
SWIDTH 750 0
DWIDTH 9 0
BBX 7 10 0 0
BITMAP
06
06
06
06
C6
C6
C6
C6
EE
6C
ENDCHAR
STARTCHAR K
ENCODING 75
SWIDTH 750 0
DWIDTH 9 0
BBX 7 10 0 0
BITMAP
C6
C6
CE
DC
D8
DC
CE
C6
C6
C6
ENDCHAR
STARTCHAR L
ENCODING 76
SWIDTH 666 0
DWIDTH 8 0
BBX 6 10 0 0
BITMAP
C0
C0
C0
C0
C0
C0
C0
00
FC
FC
ENDCHAR
STARTCHAR M
ENCODING 77
SWIDTH 916 0
DWIDTH 11 0
BBX 9 10 0 0
BITMAP
C180
C180
E380
7700
BE80
DD80
C980
C180
C180
C180
ENDCHAR
STARTCHAR N
ENCODING 78
SWIDTH 750 0
DWIDTH 9 0
BBX 7 10 0 0
BITMAP
C6
C6
E6
76
BA
DC
CE
C6
C6
C6
ENDCHAR
STARTCHAR O
ENCODING 79
SWIDTH 750 0
DWIDTH 9 0
BBX 7 10 0 0
BITMAP
6C
EE
C6
C6
C6
C6
C6
C6
EE
6C
ENDCHAR
STARTCHAR P
ENCODING 80
SWIDTH 750 0
DWIDTH 9 0
BBX 7 10 0 0
BITMAP
EC
EE
C6
C6
C6
DE
DC
C0
C0
C0
ENDCHAR
STARTCHAR Q
ENCODING 81
SWIDTH 750 0
DWIDTH 9 0
BBX 7 12 0 -2
BITMAP
6C
EE
C6
C6
C6
C6
C6
C6
F6
78
1C
0C
ENDCHAR
STARTCHAR R
ENCODING 82
SWIDTH 750 0
DWIDTH 9 0
BBX 7 10 0 0
BITMAP
EC
EE
C6
C6
DC
D8
DC
CE
C6
C6
ENDCHAR
STARTCHAR S
ENCODING 83
SWIDTH 750 0
DWIDTH 9 0
BBX 7 10 0 0
BITMAP
6C
EE
C6
E0
78
3C
0E
C6
EE
6C
ENDCHAR
STARTCHAR T
ENCODING 84
SWIDTH 666 0
DWIDTH 8 0
BBX 6 10 0 0
BITMAP
FC
FC
00
30
30
30
30
30
30
30
ENDCHAR
STARTCHAR U
ENCODING 85
SWIDTH 750 0
DWIDTH 9 0
BBX 7 10 0 0
BITMAP
C6
C6
C6
C6
C6
C6
C6
C6
EE
6C
ENDCHAR
STARTCHAR V
ENCODING 86
SWIDTH 833 0
DWIDTH 10 0
BBX 8 10 0 0
BITMAP
C3
C3
C3
E7
66
76
34
30
18
18
ENDCHAR
STARTCHAR W
ENCODING 87
SWIDTH 1000 0
DWIDTH 12 0
BBX 10 10 0 0
BITMAP
CCC0
CCC0
CCC0
CCC0
CCC0
EDC0
6D80
6D80
6180
6180
ENDCHAR
STARTCHAR X
ENCODING 88
SWIDTH 750 0
DWIDTH 9 0
BBX 7 10 0 0
BITMAP
C6
C6
EE
74
38
5C
EE
C6
C6
C6
ENDCHAR
STARTCHAR Y
ENCODING 89
SWIDTH 833 0
DWIDTH 10 0
BBX 8 10 0 0
BITMAP
C3
C3
E7
76
34
18
18
18
18
18
ENDCHAR
STARTCHAR Z
ENCODING 90
SWIDTH 750 0
DWIDTH 9 0
BBX 7 10 0 0
BITMAP
F6
F6
0E
1C
38
70
E0
C0
DE
DE
ENDCHAR
STARTCHAR bracketleft
ENCODING 91
SWIDTH 416 0
DWIDTH 5 0
BBX 3 10 0 0
BITMAP
E0
E0
C0
C0
C0
C0
C0
C0
E0
E0
ENDCHAR
STARTCHAR backslash
ENCODING 92
SWIDTH 750 0
DWIDTH 9 0
BBX 7 10 0 0
BITMAP
C0
C0
E0
70
30
18
1C
0E
06
06
ENDCHAR
STARTCHAR bracketright
ENCODING 93
SWIDTH 416 0
DWIDTH 5 0
BBX 3 10 0 0
BITMAP
E0
E0
60
60
60
60
60
60
E0
E0
ENDCHAR
STARTCHAR asciicircum
ENCODING 94
SWIDTH 583 0
DWIDTH 7 0
BBX 5 4 0 6
BITMAP
70
F8
D8
D8
ENDCHAR
STARTCHAR underscore
ENCODING 95
SWIDTH 750 0
DWIDTH 9 0
BBX 7 1 0 -1
BITMAP
FE
ENDCHAR
STARTCHAR grave
ENCODING 96
SWIDTH 750 0
DWIDTH 9 0
BBX 1 1 0 0
BITMAP
00
ENDCHAR
STARTCHAR a
ENCODING 97
SWIDTH 750 0
DWIDTH 9 0
BBX 7 8 0 0
BITMAP
EC
EE
06
76
F6
C6
F6
76
ENDCHAR
STARTCHAR b
ENCODING 98
SWIDTH 750 0
DWIDTH 9 0
BBX 7 10 0 0
BITMAP
C0
C0
DC
DE
C6
C6
C6
C6
EE
EC
ENDCHAR
STARTCHAR c
ENCODING 99
SWIDTH 750 0
DWIDTH 9 0
BBX 7 8 0 0
BITMAP
6C
EE
C6
C0
C0
C6
EE
6C
ENDCHAR
STARTCHAR d
ENCODING 100
SWIDTH 750 0
DWIDTH 9 0
BBX 7 10 0 0
BITMAP
06
06
76
F6
C6
C6
C6
C6
EE
6E
ENDCHAR
STARTCHAR e
ENCODING 101
SWIDTH 750 0
DWIDTH 9 0
BBX 7 8 0 0
BITMAP
EE
EE
C6
DE
DE
C0
EE
EE
ENDCHAR
STARTCHAR f
ENCODING 102
SWIDTH 500 0
DWIDTH 6 0
BBX 4 10 0 0
BITMAP
70
F0
C0
F0
F0
C0
C0
C0
C0
C0
ENDCHAR
STARTCHAR g
ENCODING 103
SWIDTH 750 0
DWIDTH 9 0
BBX 7 10 0 -2
BITMAP
6E
EE
C6
C6
C6
F6
76
06
7E
7C
ENDCHAR
STARTCHAR h
ENCODING 104
SWIDTH 750 0
DWIDTH 9 0
BBX 7 10 0 0
BITMAP
C0
C0
EC
EE
C6
C6
C6
C6
C6
C6
ENDCHAR
STARTCHAR i
ENCODING 105
SWIDTH 333 0
DWIDTH 4 0
BBX 2 10 0 0
BITMAP
C0
C0
C0
C0
C0
C0
C0
C0
C0
C0
ENDCHAR
STARTCHAR j
ENCODING 106
SWIDTH 416 0
DWIDTH 5 0
BBX 3 12 0 -2
BITMAP
60
60
60
60
60
60
60
60
60
60
E0
C0
ENDCHAR
STARTCHAR k
ENCODING 107
SWIDTH 750 0
DWIDTH 9 0
BBX 7 10 0 0
BITMAP
C0
C0
C6
CE
DC
D8
DC
CE
C6
C6
ENDCHAR
STARTCHAR l
ENCODING 108
SWIDTH 333 0
DWIDTH 4 0
BBX 2 10 0 0
BITMAP
C0
C0
C0
C0
C0
C0
C0
C0
C0
C0
ENDCHAR
STARTCHAR m
ENCODING 109
SWIDTH 1000 0
DWIDTH 12 0
BBX 10 8 0 0
BITMAP
D980
DDC0
CCC0
CCC0
CCC0
CCC0
CCC0
CCC0
ENDCHAR
STARTCHAR n
ENCODING 110
SWIDTH 750 0
DWIDTH 9 0
BBX 7 8 0 0
BITMAP
DC
DE
C6
C6
C6
C6
C6
C6
ENDCHAR
STARTCHAR o
ENCODING 111
SWIDTH 750 0
DWIDTH 9 0
BBX 7 8 0 0
BITMAP
6C
EE
C6
C6
C6
C6
EE
6C
ENDCHAR
STARTCHAR p
ENCODING 112
SWIDTH 750 0
DWIDTH 9 0
BBX 7 10 0 -2
BITMAP
EC
EE
C6
C6
C6
C6
DE
DC
C0
C0
ENDCHAR
STARTCHAR q
ENCODING 113
SWIDTH 750 0
DWIDTH 9 0
BBX 7 10 0 -2
BITMAP
6E
EE
C6
C6
C6
C6
F6
76
06
06
ENDCHAR
STARTCHAR r
ENCODING 114
SWIDTH 583 0
DWIDTH 7 0
BBX 5 8 0 0
BITMAP
D8
D8
C0
C0
C0
C0
C0
C0
ENDCHAR
STARTCHAR s
ENCODING 115
SWIDTH 750 0
DWIDTH 9 0
BBX 7 8 0 0
BITMAP
6E
EE
C0
FC
7E
06
EE
EC
ENDCHAR
STARTCHAR t
ENCODING 116
SWIDTH 500 0
DWIDTH 6 0
BBX 4 10 0 0
BITMAP
C0
C0
F0
F0
C0
C0
C0
C0
F0
70
ENDCHAR
STARTCHAR u
ENCODING 117
SWIDTH 750 0
DWIDTH 9 0
BBX 7 8 0 0
BITMAP
C6
C6
C6
C6
C6
C6
EE
6C
ENDCHAR
STARTCHAR v
ENCODING 118
SWIDTH 750 0
DWIDTH 9 0
BBX 7 8 0 0
BITMAP
C6
C6
C6
EE
6C
74
38
38
ENDCHAR
STARTCHAR w
ENCODING 119
SWIDTH 1000 0
DWIDTH 12 0
BBX 10 8 0 0
BITMAP
CCC0
CCC0
CCC0
CCC0
CCC0
EDC0
6D80
6D80
ENDCHAR
STARTCHAR x
ENCODING 120
SWIDTH 750 0
DWIDTH 9 0
BBX 7 8 0 0
BITMAP
C6
EE
74
38
5C
EE
C6
C6
ENDCHAR
STARTCHAR y
ENCODING 121
SWIDTH 750 0
DWIDTH 9 0
BBX 7 10 0 -2
BITMAP
C6
C6
C6
C6
C6
F6
76
06
7E
7C
ENDCHAR
STARTCHAR z
ENCODING 122
SWIDTH 750 0
DWIDTH 9 0
BBX 7 8 0 0
BITMAP
EE
EE
1C
38
70
E0
DE
DE
ENDCHAR
STARTCHAR braceleft
ENCODING 123
SWIDTH 500 0
DWIDTH 6 0
BBX 4 10 0 0
BITMAP
70
70
60
60
E0
E0
60
60
70
70
ENDCHAR
STARTCHAR bar
ENCODING 124
SWIDTH 833 0
DWIDTH 10 0
BBX 8 10 0 0
BITMAP
C3
C3
E7
76
34
DB
DB
DB
18
18
ENDCHAR
STARTCHAR braceright
ENCODING 125
SWIDTH 500 0
DWIDTH 6 0
BBX 4 10 0 0
BITMAP
E0
E0
60
60
70
70
60
60
E0
E0
ENDCHAR
STARTCHAR asciitilde
ENCODING 126
SWIDTH 833 0
DWIDTH 10 0
BBX 8 4 0 6
BITMAP
70
FB
DF
0E
ENDCHAR
ENDFONT
